<?xml version="1.0" encoding="UTF-8"?>
<svg id="Layer_1" data-name="Layer 1" xmlns="http://www.w3.org/2000/svg" viewBox="0 0 132.82 149.42">
  <defs>
    <style>
      .cls-1 {
        stroke: #fcf3f4;
        stroke-miterlimit: 10;
        stroke-width: 2px;
      }

      .cls-1, .cls-2 {
        fill: #fa7070;
      }

      .cls-2, .cls-3 {
        stroke-width: 0px;
      }

      .cls-3 {
        fill: #fff;
      }
    </style>
  </defs>
  <g id="Layer_2" data-name="Layer 2">
    <path class="cls-1" d="m82.62,144.1c10.12-4.44,17.21-7.54,24.85-14.68,8.64-8.08,12.52-16.22,16.9-25.41,1.48-3.1,5.58-12.08,7.04-24.16,1.2-9.94-.44-13.27-2.43-14.81-2.75-2.12-6.47-1.06-7.21-3.02-.7-1.85,2.48-3.16,4.01-7.05,1.92-4.86-.16-10.13-2.88-17.04-1.51-3.84-1.77-3.35-3.39-7.53-2.65-6.82-3.3-11.75-3.76-11.67-.42.07-.21,4.13,0,4.14.24,0,.64-5.32.75-9.41.09-3.26.25-3.89,0-4.89-.54-2.19-2.26-5.63-4.52-6.02-4.33-.75-11.11,9.65-14.31,19.2-2.31,6.91-1.96,11-5.65,13.18-2.82,1.66-6.93,1.56-9.41-.38-2.16-1.68-2.08-3.96-3.13-9.26-2.63-13.27-7.01-18.74-8.54-20.48-1.52-1.73-3.71-4.17-6.02-3.76-1.36.24-2.94,1.49-4.89,7.15-1.86,5.39-2.75,10.99-3.76,24.85-.29,3.95-.43,6.4-1.88,9.41-1.58,3.28-3.04,3.75-5.27,7.53-2.86,4.84-2.01,6.67-3.76,9.41-2.62,4.11-7.38,4.51-16.56,6.4-20,4.12-24.91,5.81-26.73,9.79-.39.86-1.72,3.78-.68,6.61.88,2.36,2.77,2.92,3.87,5.98.72,2.01.21,2.6.61,4.26,1.32,5.49,9.17,8.07,11.16,8.72,4.71,1.55,8.98,1.27,11.77.79,0,0,.28.61-6.4,6.4-.36.37-.84.92-1.29,1.66-.1.17-1.11,1.85-1.35,3.99-.33,2.96.81,6.23,3.01,8.28,1.99,1.86,4.14,2.39,6.78,3.01,2.46.58,9.13,2.15,15.81-.75,2.41-1.05,3.13-1.94,4.14-1.51,2.24.97.35,6.11,2.26,13.18.53,1.95,2.56,9.46,8.28,11.67,1.5.58,2.96.69,6.02.38,9.09-.93,15.98-3.88,16.56-4.14v-.02Z"/>
  </g>
  <g id="Layer_3" data-name="Layer 3">
    <path class="cls-3" d="m13.33,72.91c.15,1.49,6.78.81,7.91,3.85.85,2.3-1.78,5.83-4.26,7.71-3.38,2.55-6.41,2-7.1,4.06-.62,1.87,1.29,4.05,1.83,4.67,3.39,3.87,8.92,4.31,11.56,4.46,13.88.8,40.77-.81,40.77-.81,1.28-.08,4.17-.21,5.88,1.62,1.79,1.92,1.26,4.86,1.22,5.07-.7,3.55-4.52,5.9-7.75,6.46-3.24.56-3.48-1.11-8.08-.88-2.42.12-2.77.6-8.05,1.45-3.99.64-3.57.33-5.22.71-6.53,1.48-7.28,4.97-11.4,4.85-3.82-.12-5.78-3.19-7.2-2.16-1.07.78-1.01,3.31-.07,5.08,2.21,4.18,9.89,5.3,15.81,4.16,6.62-1.27,7.65-4.7,13.91-4.8,4.79-.07,8.61,1.87,8.52,2.38-.1.62-5.95-.62-6.9,1.42-.5,1.08.8,2.07,1.62,4.87.8,2.72.38,4.52.41,6.09,0,0,.11,5.73,7.1,10.95,8.37,6.26,31.89-4.75,47.26-21.3,19.61-21.11,20.85-45.72,17.65-50.71-3.84-5.99-6.69-7.1-6.69-7.1-.99-.39-2.54-.78-2.64-1.62-.11-.92,1.59-1.54,2.64-2.43,3.99-3.41,1.11-13.01.61-14.6-2.14-6.81-5.32-8.85-7.91-13.39-6.54-11.45,1.33-24.23-1.83-25.56-1.94-.82-5.43,3.39-6.49,4.67-5.37,6.47-8.72,17.59-9.74,22.31-.18.83-.66,3.18-2.43,4.06-.97.48-1.93.31-2.64.2-6.45-.97-8.67.85-10.95-1.01-1.51-1.24-1.84-3.12-2.03-4.06-1.81-9.13-10.04-28.96-12.78-28.6-3.4.44-7.04,33.15-8.32,38.74-.28,1.23-.78,2.6-1.83,3.85-.79.95-1.59,1.46-1.83,1.62-3.11,2.11-4.66,8.85-7.1,12.17-2.36,3.22-4.8,2.21-21.5,6.69-7.03,1.89-12.1,3.55-11.97,4.87h.01Z"/>
  </g>
  <g id="Layer_4" data-name="Layer 4">
    <path class="cls-2" d="m109.68,69.87h0s1.83-15.08,4.11-25.76c.11-.5.26-1.22.36-2.23.09-1.04.42-5.71-2.47-11.28-.23-.44-.21-.36-.37-.69-3.28-6.43.39-12.25-1.01-13.18-2.58-1.72-16.17,17.1-15.21,21.5.22.99.53,1.79.53,1.79.97,2.47,2.5,3.67,2.31,3.89-.3.37-4.31-2.81-4.67-2.43-.27.29,2.19,2.46,4.87,6.09,2.97,4.02,4.07,6.9,4.67,6.69.65-.23-.99-3.65-.2-8.11.88-5.04,4.43-8.95,4.87-8.72.18.09-.18.86-.55,2.38-1.18,4.88-.53,9.54-.09,9.57.42.03.89-4.11,1.24-4.08.34.04.19,3.92.18,4.25-.36,8.91-2.19,18.37-.18,19.5.18.1,1.62.83,1.62.83h0Z"/>
    <path class="cls-2" d="m71.54,37.84c.18,1.22-4.42,3.79-6.03,2.48-.62-.5-.62-1.44-.62-2.13-.04-5.68-.87-10.01-.97-10.01-.16,0-1.75,10.35-1.77,13.12,0,.14,0,.57-.27.97-.61.92-2.21,1.1-2.75.89-3.16-1.28,3.66-27.8,5.67-27.47,1.04.17.69,7.42,1.42,7.44.51.01,1.03-3.49,1.24-3.46.42.06.55,13.79,1.95,15.69.64.87,1.06,1.33,1.06,1.33.77.84,1.02.88,1.06,1.15h.01Z"/>
    <path class="cls-2" d="m46.99,60.98c.16.05.9-4.99,4.52-8.86,2.7-2.89,6.29-4.36,6.74-3.81.63.77-4.72,5.72-4.08,6.47.55.64,4.92-2.43,5.14-2.13.28.4-6.92,5.86-6.74,6.12.18.25,7.95-3.98,11.43-6.82.18-.15,1.26-1.04,2.92-1.6,1.18-.4,2.37-.79,3.01-.27,1.02.83-.58,2.93.35,5.85.24.76.7,2.2,1.95,2.84,1.57.8,2.72-.52,4.52.27,1.26.55.96,1.3,2.48,2.39,2.18,1.57,3.78.71,4.43,1.86.62,1.1-.71,2.12-1.24,5.58-.29,1.88-.48,3.09.18,3.63,1.05.88,2.93-1.1,7.09-1.24,1.35-.05,2.26-.08,3.37.35,2.41.94,2.37,2.75,5.14,4.52,1.98,1.26,3.78,1.47,3.72,1.77-.1.46-4.31-.24-4.43.27-.09.4,2.44.93,5.05,2.57,3.58,2.25,5.72,5.6,5.41,5.94-.5.53-7.68-5.67-8.06-5.23-.18.2,1.38,1.52,3.1,4.25,1.54,2.44,2.47,3.92,2.3,5.67-.12,1.28-.76,1.93-4.25,5.67-4.44,4.76-4.64,5.04-4.87,5.58-1.45,3.28.55,4.91.27,9.31-.19,2.83-1.93,5.73-5.41,11.43-3.96,6.49-7.3,10.83-7.09,10.99.27.21,5.97-7.09,6.47-6.74.71.5-9.61,16.07-9.13,16.4.36.24,6.27-7.99,6.82-7.62.43.29-3.15,5.28-2.3,6.12,1.27,1.24,12.84-6.29,22.16-16.84,9.02-10.21,12.75-23.59,20.21-50.34.29-1.03.93-3.46-.18-5.76-1.27-2.64-4.73-4.85-7.62-4.25-4.46.92-3.92,7.71-8.6,9.13-4.79,1.45-10.27-4.22-10.64-4.61-3.19-3.38-1.81-5.04-4.52-8.51-3.8-4.85-7.56-2.97-16.22-8.51-5.31-3.39-5.02-4.82-9.22-6.38-1.71-.64-6.7-2.41-12.32-.53-.82.27-2.7.98-4.7,2.48-4.25,3.2-5.75,7.58-6.47,9.66-.57,1.65-.79,2.9-.71,2.92h.02Z"/>
  </g>
  <g id="Layer_5" data-name="Layer 5">
    <path class="cls-2" d="m54.41,74.28s.16-.29.44-.79c0,0,.17-.31.41-.72,1.1-1.89,3.61-6.2,5.31-5.88,1.03.19.61,1.88,2.15,3.12,2.26,1.82,6.09.61,6.87.36,2.88-.91,2.9-2.19,5.88-2.98,2.46-.66,4.6-.36,4.61-.63,0-.25-1.75-.21-3.71-1.36-1.2-.7-1.27-1.15-2.44-2.08-2.49-1.98-5.19-2.34-5.16-2.44.04-.14,4.59,1.38,4.79.9.12-.28-1.28-1.34-2.89-1.81-2.07-.6-3.87-.04-4.25.09-2.19.73-2.41,1.99-4.43,2.71-1.95.7-3.05-.59-3.98.18-.83.69-.35,1.83-.54,3.89-.38,4.21-3.1,7.44-3.07,7.45h.01Z"/>
    <path class="cls-3" d="m65.95,68.07c1.35,1.03,3.13.3,3.45.17.51-.21,1.76-.72,2.11-2,.39-1.43-.67-2.63-.81-2.78-.98-1.06-2.83-1.62-4.31-.7-1.28.79-1.75,2.35-1.48,3.59.05.25.26,1.11,1.04,1.71h0Z"/>
    <path class="cls-2" d="m67.58,66.71s.48.13.81-.01c.15-.06.24-.16.4-.38.45-.61.68-.91.7-1.11.07-.65-.65-1.61-1.62-1.56-.78.04-1.36.72-1.45,1.39,0,.04-.09.74.33,1.17.28.29.82.51.83.51h0Z"/>
  </g>
  <g id="Layer_6" data-name="Layer 6">
    <path class="cls-3" d="m63.16,98.99c.82.86-.76,3.42-2.76,5.07-2.67,2.2-5.03,1.91-9.98,3.62-.67.23-1.48.79-2.78,1.14-2.22.6-3.99.38-4.65.33-5.77-.42-9.01,6.11-14.66,5.04-1.74-.33-3.69-1.38-3.77-2.54-.06-.99,1.28-1.28,3.75-3.35,2.52-2.12,5.2-5.28,6.71-5.93.89-.39,1.84-.68,1.84-.68.19-.06.39-.12.61-.17,4.47-1.18,7.75,0,12.1-.28,1.93-.12,3.06-.19,4.68-.44,5.67-.88,8.2-2.57,8.92-1.81h-.01Z"/>
    <path class="cls-2" d="m32.73,105.84s2.55-1.09,2.67-.87c.16.31-4.56,2.95-4.46,3.13.11.19,5.43-2.7,5.62-2.38.26.43-8.95,5.85-8.58,6.55.35.65,8.29-4.23,13.04-6.32.26-.12.77-.34.75-.58-.04-.57-2.93-1.11-5.68-.64-1.94.34-3.36,1.1-3.36,1.1h0Z"/>
  </g>
</svg>